<?xml version="1.0" encoding="UTF-8"?>
<svg id="Layer_2" xmlns="http://www.w3.org/2000/svg" viewBox="0 0 712.53 186.07">
  <defs>
    <style>
      .cls-1 {
        fill: #9a89d1;
      }
    </style>
  </defs>
  <g id="Full_Color">
    <g>
      <path class="cls-1" d="M103.9,103c7,5,25,41,25,56s7-1,7-1c0,0,10.5-44.5.5-57.5,20,5,56.5-11.5,58.5-31.5,1-9-3-2-16,1s-45-4-50-9S93.05,9.44,61.9,9c-35.5-.5,12.5,5.5,32.5,61.5-4,8-32,19-64,18-11.04-.34,25,36,73.5,14.5Z"/>
      <ellipse class="cls-1" cx="150.9" cy="27.5" rx="26" ry="27.5"/>
      <path class="cls-1" d="M155.9,110c19.04.54,43.95,7.27,59.26,18.88,25.05,19.57-10.14,38.11-27.58,44.31-46.78,17.31-129.1,19.39-172.37-7.45-12.07-7.8-22.66-20.94-8.3-32.75,14.17-11.76,40.27-19.74,58.49-21.48-16.21,2.89-32.12,8.81-46.38,16.94-5.81,3.63-14.61,9.06-15.13,16.35,1,13.9,24.5,22.98,36.09,26.64,43.89,12.75,102.49,11.37,145.82-3.17,11.09-4.13,22.98-8.94,30.87-17.99,6.05-7.02,2.56-13.44-3.7-18.74-14.38-11.74-38.64-19.59-57.08-21.52h0Z"/>
      <g>
        <path class="cls-1" d="M306.03,73.41c2.42,0,3.62.82,3.62,2.46s-1.25,2.46-3.76,2.46c-6.56,0-12.75,1.03-18.56,3.08s-10.63,4.67-14.46,7.86c-3.83,3.19-6.84,6.7-9.02,10.53s-3.28,7.59-3.28,11.28c0,5.92,2.48,10.81,7.45,14.66,4.97,3.85,12.37,5.78,22.22,5.78,11.26,0,19.69-2.69,25.29-8.07,2.92-2.83,4.38-6.48,4.38-10.97s-1.48-8.03-4.44-10.63c-2.96-2.6-6.76-3.9-11.38-3.9s-9.21.91-13.74,2.73c-4.54,1.82-8.12,4.26-10.77,7.31l-3.76-3.35c2.64-3.37,6.56-6.08,11.76-8.13s9.93-3.08,14.22-3.08,7.74.39,10.36,1.16c2.62.78,5,1.91,7.14,3.42,4.6,3.28,7.04,8.34,7.31,15.18-.18,4.1-1.41,7.79-3.69,11.07-2.28,3.28-5.29,5.95-9.02,8-7.57,4.19-16.47,6.29-26.73,6.29-10.98,0-20.67-2.55-29.05-7.66-4.01-2.46-7.22-5.66-9.64-9.6-2.42-3.94-3.62-8.33-3.62-13.16,0-17.13,14.99-28.14,44.98-33.02-5.06-1.73-8.71-4.03-10.94-6.9-2.23-2.87-3.35-5.86-3.35-8.96,0-5.56,3.06-10.45,9.19-14.66,6.13-4.21,13.84-6.32,23.14-6.32,8.52,0,15.63,2.28,21.33,6.84,4.24,3.37,6.45,7.82,6.63,13.33,0,2.55-.75,4.48-2.26,5.78s-3.3,1.95-5.4,1.95-3.89-.58-5.37-1.74c-1.48-1.16-2.22-2.52-2.22-4.07s.27-2.77.82-3.66,1.15-1.55,1.81-1.98c.66-.43,1.42-.76,2.29-.99,1.28-.32,2.3-.48,3.08-.48-1.46-3.01-4.04-5.41-7.76-7.21-3.71-1.8-8.03-2.7-12.95-2.7s-9.4,1.4-13.43,4.2-6.05,6.62-6.05,11.45c0,5.2,1.8,9.27,5.4,12.24,1.96,1.64,4.31,2.46,7.04,2.46l5.2-.27Z"/>
        <path class="cls-1" d="M349.51,117.64c9.52-14.72,18.07-22.08,25.63-22.08,2.55,0,4.47.78,5.74,2.32,1.28,1.55,1.91,3.51,1.91,5.88s-1.06,6.47-3.18,12.3c-2.12,5.83-3.18,9.45-3.18,10.83s.34,2.08,1.03,2.08c.91,0,2.26-.95,4.03-2.84,1.78-1.89,3.35-3.88,4.72-5.98l2.87,2.73c-2.73,4.97-5.73,8.72-8.99,11.25-3.26,2.53-5.9,3.79-7.93,3.79s-3.61-.67-4.75-2.02c-1.14-1.34-1.71-3.18-1.71-5.5s.92-6.12,2.77-11.38,2.77-9,2.77-11.21-.75-3.32-2.26-3.32c-1.73,0-3.78,1.11-6.15,3.32-2.37,2.21-4.67,4.91-6.9,8.1-3.55,5.1-7.18,10.98-10.87,17.64l-1.85,3.28h-9.64l2.12-6.43c3.96-11.85,5.95-18.88,5.95-21.09s-.37-3.32-1.09-3.32c-1.32,0-2.89,1.57-4.72,4.72-.41.73-.75,1.31-1.03,1.74-.27.43-.58.96-.92,1.57s-.56.99-.65,1.13l-4.58-2.67c3.55-5.79,6.81-10.06,9.78-12.82,2.96-2.76,5.99-4.14,9.09-4.14,1.41,0,2.63.59,3.66,1.78,1.03,1.19,1.54,2.62,1.54,4.31s-.14,3.34-.41,4.96c-.27,1.62-.56,2.96-.85,4.03-.3,1.07-.68,2.45-1.16,4.14-.48,1.69-.74,2.64-.79,2.87Z"/>
        <path class="cls-1" d="M412.4,110.12l-4.72,2.05c-4.97-9.62-7.45-18.89-7.45-27.82,0-11.07,3.55-20.55,10.66-28.44,6.88-7.66,15.45-12.85,25.7-15.59,5.06-1.37,10.37-2.05,15.93-2.05s10.62.57,15.18,1.71c4.56,1.14,8.79,3.33,12.71,6.56,4.24-3.46,10.21-5.2,17.91-5.2l1.37,4.24c-7.34,1.46-12.24,3.14-14.7,5.06,4.79,4.42,8.41,10.2,10.87,17.33,2.46,7.13,3.69,14.01,3.69,20.64s-.39,12.18-1.16,16.65c-.78,4.47-2.04,8.67-3.79,12.61-1.75,3.94-3.95,7.3-6.6,10.08-5.61,6.06-12.85,9.09-21.74,9.09s-18.46-2.21-28.71-6.63c-2.42,1.82-5.84,3.46-10.29,4.92-4.44,1.46-8.6,2.19-12.48,2.19-7.79,0-11.69-3.03-11.69-9.09,0-3.55,1.98-6.53,5.95-8.92s8.92-3.59,14.87-3.59,11.81,1.41,17.6,4.24c5.1-6.61,9.11-15.79,12.03-27.55,1.18-4.65,2.51-9.37,3.96-14.15,3.37-11.07,9.5-20.55,18.39-28.44-2.42-2.23-5.59-3.95-9.54-5.16-3.94-1.21-7.78-1.81-11.52-1.81-8.71,0-16.51,1.7-23.41,5.09-6.9,3.4-12.43,8.51-16.58,15.35-4.15,6.84-6.22,14.88-6.22,24.13,0,6.7,1.25,14.2,3.76,22.49ZM432.97,127.21c-6.24-2.6-12.07-3.9-17.47-3.9s-8.1,1.66-8.1,4.99c0,2.83,2.51,4.24,7.52,4.24,2.83,0,5.91-.49,9.26-1.47,3.35-.98,6.28-2.27,8.78-3.86ZM491.56,88.86c0-6.65-1.01-13.03-3.04-19.14-2.03-6.11-4.64-10.8-7.83-14.08-2.73,4.19-4.99,10.5-6.77,18.94-3.05,14.81-8.18,26.82-15.38,36.03-3.37,4.33-7.36,8.29-11.96,11.89,8.79,4.56,16.29,6.84,22.49,6.84s11.07-2.12,14.36-6.36c3.37-4.33,5.58-9.46,6.63-15.38,1-5.83,1.5-12.08,1.5-18.73Z"/>
        <path class="cls-1" d="M541.12,97.06h10.66l-5.4,20.44c-.87,2.87-1.3,5.48-1.3,7.83s.41,3.52,1.23,3.52,1.95-.72,3.38-2.15,2.65-2.88,3.66-4.34l1.57-2.19,2.94,2.73c-1.5,2.92-3.42,5.58-5.74,8-4.51,4.69-8.43,7.04-11.76,7.04-3.92,0-5.88-3.03-5.88-9.09,0-1,.04-1.75.14-2.26-.68,2.32-1.98,4.38-3.9,6.15-3.65,3.46-7.76,5.2-12.34,5.2s-8.25-1.56-11.01-4.68c-2.76-3.12-4.14-7.03-4.14-11.72,0-7.29,2.37-13.44,7.11-18.46,4.74-5.01,10.3-7.52,16.68-7.52,3.19,0,5.83.88,7.93,2.63,2.1,1.75,3.46,4.04,4.1,6.87l2.05-8ZM529.7,101.44c-2.64,0-5.12,1.11-7.42,3.32-2.3,2.21-4.07,4.88-5.3,8-1.23,3.12-1.85,6.16-1.85,9.13s.65,5.36,1.95,7.18c1.3,1.82,3.3,2.73,6.02,2.73s5.16-1.23,7.35-3.69c4.15-4.74,6.22-10.37,6.22-16.88s-2.32-9.78-6.97-9.78Z"/>
        <path class="cls-1" d="M580.08,117.64c9.52-14.72,18.07-22.08,25.63-22.08,2.55,0,4.47.78,5.74,2.32,1.28,1.55,1.91,3.51,1.91,5.88s-1.06,6.47-3.18,12.3c-2.12,5.83-3.18,9.45-3.18,10.83s.34,2.08,1.03,2.08c.91,0,2.26-.95,4.03-2.84,1.78-1.89,3.35-3.88,4.72-5.98l2.87,2.73c-2.73,4.97-5.73,8.72-8.99,11.25-3.26,2.53-5.9,3.79-7.93,3.79s-3.61-.67-4.75-2.02c-1.14-1.34-1.71-3.18-1.71-5.5s.92-6.12,2.77-11.38,2.77-9,2.77-11.21-.75-3.32-2.26-3.32c-1.73,0-3.78,1.11-6.15,3.32-2.37,2.21-4.67,4.91-6.9,8.1-3.55,5.1-7.18,10.98-10.87,17.64l-1.85,3.28h-9.64l2.12-6.43c3.96-11.85,5.95-18.88,5.95-21.09s-.37-3.32-1.09-3.32c-1.32,0-2.89,1.57-4.72,4.72-.41.73-.75,1.31-1.03,1.74-.27.43-.58.96-.92,1.57s-.56.99-.65,1.13l-4.58-2.67c3.55-5.79,6.81-10.06,9.78-12.82,2.96-2.76,5.99-4.14,9.09-4.14,1.41,0,2.63.59,3.66,1.78,1.03,1.19,1.54,2.62,1.54,4.31s-.14,3.34-.41,4.96c-.27,1.62-.56,2.96-.85,4.03-.3,1.07-.68,2.45-1.16,4.14-.48,1.69-.74,2.64-.79,2.87Z"/>
        <path class="cls-1" d="M658.83,122.7l2.8,1.98c-2.01,4.06-5.09,7.28-9.26,9.67s-8.53,3.59-13.09,3.59-8.4-1.39-11.52-4.17c-3.12-2.78-4.68-6.71-4.68-11.79s1.56-9.67,4.68-13.77c3.12-4.1,6.96-7.23,11.52-9.4,4.56-2.16,9.16-3.25,13.81-3.25,5.7,0,9.52,1.37,11.48,4.1.82,1.09,1.23,2.47,1.23,4.14s-.57,3.07-1.71,4.2-2.51,1.71-4.1,1.71-2.94-.51-4.03-1.54-1.64-2.33-1.64-3.93.98-3.05,2.94-4.38c-1.73-.55-3.33-.82-4.79-.82-3.14,0-6.04,1.16-8.68,3.49-2.64,2.32-4.65,5.14-6.02,8.44-1.37,3.3-2.05,6.55-2.05,9.74s.76,5.75,2.29,7.69c1.53,1.94,3.73,2.91,6.6,2.91s5.63-.81,8.27-2.43c2.64-1.62,4.62-3.68,5.95-6.19Z"/>
        <path class="cls-1" d="M681.73,123.38c.27,5.24,3.8,7.86,10.6,7.86,2.51,0,5.12-.72,7.83-2.15,2.71-1.44,4.91-3.13,6.6-5.09l2.94,1.91c-3.78,6.33-9.82,10.21-18.12,11.62-1.82.27-3.58.41-5.26.41-4.92,0-9.02-1.63-12.3-4.89-3.28-3.26-4.92-7.23-4.92-11.93s1.44-9.03,4.31-13.02c2.87-3.99,6.46-7.08,10.77-9.26s8.56-3.28,12.75-3.28,7.83.96,10.9,2.87,4.65,4.49,4.72,7.72c.07,3.24-.88,6.03-2.84,8.37-1.96,2.35-4.44,4.14-7.45,5.37-5.97,2.42-11.83,3.62-17.57,3.62l-2.94-.14ZM681.32,119.62c5.06-.18,9.13-.99,12.2-2.43s5.22-3.08,6.43-4.92c1.21-1.85,1.81-3.78,1.81-5.81s-.52-3.53-1.57-4.51c-1.05-.98-2.17-1.47-3.35-1.47-2.92,0-5.59,1.01-8.03,3.04-2.44,2.03-4.3,4.49-5.57,7.38-1.28,2.89-1.91,5.8-1.91,8.72Z"/>
      </g>
    </g>
  </g>
</svg>