<?xml version="1.0" encoding="UTF-8"?>
<svg id="Layer_2" data-name="Layer 2" xmlns="http://www.w3.org/2000/svg" viewBox="0 0 178.78 145.14">
  <defs>
    <style>
      .cls-1 {
        fill: #816cc5;
      }
    </style>
  </defs>
  <g id="Layer_2-2" data-name="Layer 2">
    <g>
      <path class="cls-1" d="M38.76,6.26c12.46-3.47,32.26-3.77,68.86,44.22,31.5,8.7,43.43,6.48,52.58.65-3.38,29.05-34.58,32.95-49.24,30.64,8.21,13.68,4.92,42.67-3.28,50.88-6.05-23.67-14.12-39.67-21.65-47.67-13.59,10.31-59.1,3.3-62.94-15,28.12,0,40.44-3,53.94-12.6-7.59-25.65-24-41.1-38.26-51.12Z"/>
      <ellipse class="cls-1" cx="121.71" cy="23.68" rx="21.21" ry="23.68"/>
      <path class="cls-1" d="M128.77,85.59c15.36,2.68,38.31,8.65,47.64,21.99,14.24,24.03-39.9,34.72-55.41,35.98-28.36,2.89-57.16,1.89-85.14-3.6-7.02-1.48-13.98-3.26-20.63-6.04-3.39-1.41-6.69-3.12-9.47-5.58-10.61-9.36-5.19-21.3,5.12-28.1,5.97-4.06,12.7-6.66,19.43-9.05,10.1-3.45,20.4-6.17,30.8-8.48,3.47-.73,6.95-1.42,10.45-2.03-13.83,3.11-27.52,6.92-40.75,11.89-6.53,2.49-13.14,5.17-18.85,9.22-5.28,3.82-10.61,9.57-9.58,16.51,2.58,19.31,59.84,22.83,76.04,23.59,21.09.77,42.44.08,63.09-4.5,63.08-15.28,31.22-42.92-12.74-51.8h0Z"/>
    </g>
  </g>
</svg>