<?xml version="1.0" encoding="UTF-8"?>
<svg id="Layer_2" xmlns="http://www.w3.org/2000/svg" viewBox="0 0 314.35 397.28">
  <defs>
    <style>
      .cls-1, .cls-2, .cls-3, .cls-4, .cls-5, .cls-6 {
        fill: none;
        stroke: #a3a3a3;
        stroke-miterlimit: 10;
      }

      .cls-1, .cls-5 {
        stroke-width: .67px;
      }

      .cls-7 {
        fill: #9a89d1;
      }

      .cls-2 {
        stroke-dasharray: 4.08 4.08 4.08 4.08 4.08 4.08;
      }

      .cls-2, .cls-4 {
        stroke-width: .99px;
      }

      .cls-3 {
        stroke-dasharray: 1.38 1.38 1.38 1.38 1.38 1.38;
      }

      .cls-3, .cls-6 {
        stroke-width: .6px;
      }

      .cls-8 {
        fill: #a3a3a3;
        font-family: SourceSansRoman-Semibold, 'Source Sans Variable';
        font-size: 10px;
        font-variation-settings: 'wght' 600;
        font-weight: 600;
      }

      .cls-5 {
        stroke-dasharray: 2.76 2.76 2.76 2.76 2.76 2.76;
      }

      .cls-9 {
        letter-spacing: .01em;
      }

      .cls-10 {
        letter-spacing: -.02em;
      }

      .cls-11 {
        letter-spacing: -.01em;
      }
    </style>
  </defs>
  <g id="Favicons">
    <g>
      <rect class="cls-4" x="8.65" y="-7.66" width="126.45" height="142.77" transform="translate(135.6 -8.16) rotate(90)"/>
      <rect class="cls-4" x="22.93" y="22.93" width="97.9" height="81.58"/>
      <g>
        <path class="cls-7" d="M68.44,68.15c3.06,2.19,10.93,17.93,10.93,24.49s3.06-.44,3.06-.44c0,0,4.59-19.46.22-25.14,8.75,2.19,24.71-5.03,25.58-13.77.44-3.94-1.31-.87-7,.44-5.68,1.31-19.68-1.75-21.86-3.94-2.19-2.19-15.68-22.55-29.3-22.74-15.52-.22,5.47,2.41,14.21,26.89-1.75,3.5-13.99,8.31-27.99,7.87-4.83-.15,10.93,15.74,32.14,6.34Z"/>
        <ellipse class="cls-7" cx="88.99" cy="35.14" rx="11.37" ry="12.03"/>
        <path class="cls-7" d="M91.18,71.21c8.33.24,19.22,3.18,25.92,8.25,10.95,8.56-4.44,16.67-12.06,19.38-20.46,7.57-56.45,8.48-75.37-3.26-5.28-3.41-9.91-9.16-3.63-14.32,6.2-5.14,17.61-8.63,25.58-9.39-7.09,1.26-14.05,3.85-20.28,7.41-2.54,1.59-6.39,3.96-6.62,7.15.44,6.08,10.71,10.05,15.78,11.65,19.19,5.58,44.82,4.97,63.77-1.39,4.85-1.81,10.05-3.91,13.5-7.87,2.65-3.07,1.12-5.88-1.62-8.2-6.29-5.13-16.9-8.57-24.96-9.41h0Z"/>
      </g>
      <polyline class="cls-2" points=".49 22.93 22.93 22.93 22.93 .71"/>
      <polyline class="cls-2" points="120.83 .49 120.83 22.93 143.05 22.93"/>
      <polyline class="cls-2" points="143.05 104.51 120.61 104.51 120.61 126.73"/>
      <polyline class="cls-2" points="22.71 126.95 22.71 104.51 .49 104.51"/>
      <g>
        <path class="cls-7" d="M69.61,223.9c2.04,1.46,7.29,11.95,7.29,16.33s2.04-.29,2.04-.29c0,0,3.06-12.97.15-16.76,5.83,1.46,16.47-3.35,17.05-9.18.29-2.62-.87-.58-4.66.29-3.79.87-13.12-1.17-14.58-2.62s-10.45-15.03-19.53-15.16c-10.35-.15,3.64,1.6,9.47,17.93-1.17,2.33-9.33,5.54-18.66,5.25-3.22-.1,7.29,10.49,21.43,4.23Z"/>
        <ellipse class="cls-7" cx="83.31" cy="201.89" rx="7.58" ry="8.02"/>
        <path class="cls-7" d="M84.77,225.94c5.55.16,12.81,2.12,17.28,5.5,7.3,5.71-2.96,11.11-8.04,12.92-13.64,5.05-37.64,5.65-50.25-2.17-3.52-2.28-6.61-6.1-2.42-9.55,4.13-3.43,11.74-5.75,17.05-6.26-4.73.84-9.36,2.57-13.52,4.94-1.69,1.06-4.26,2.64-4.41,4.77.29,4.05,7.14,6.7,10.52,7.77,12.8,3.72,29.88,3.32,42.51-.93,3.23-1.2,6.7-2.61,9-5.24,1.76-2.05.75-3.92-1.08-5.46-4.19-3.42-11.26-5.71-16.64-6.27h0Z"/>
      </g>
      <g>
        <rect class="cls-1" x="29.05" y="172.57" width="85.66" height="96.71" transform="translate(292.8 149.05) rotate(90)"/>
        <rect class="cls-1" x="38.72" y="193.29" width="66.32" height="55.27"/>
        <polyline class="cls-5" points="23.52 193.29 38.72 193.29 38.72 178.24"/>
        <polyline class="cls-5" points="105.04 178.09 105.04 193.29 120.09 193.29"/>
        <polyline class="cls-5" points="120.09 248.56 104.89 248.56 104.89 263.61"/>
        <polyline class="cls-5" points="38.57 263.76 38.57 248.56 23.52 248.56"/>
      </g>
      <g>
        <path class="cls-7" d="M70.71,345.3c1.02.73,3.64,5.98,3.64,8.16s1.02-.15,1.02-.15c0,0,1.53-6.49.07-8.38,2.92.73,8.24-1.68,8.53-4.59.15-1.31-.44-.29-2.33.15-1.89.44-6.56-.58-7.29-1.31s-5.23-7.52-9.77-7.58c-5.17-.07,1.82.8,4.74,8.96-.58,1.17-4.66,2.77-9.33,2.62-1.61-.05,3.64,5.25,10.71,2.11Z"/>
        <ellipse class="cls-7" cx="77.56" cy="334.29" rx="3.79" ry="4.01"/>
        <path class="cls-7" d="M78.29,346.32c2.78.08,6.41,1.06,8.64,2.75,3.65,2.85-1.48,5.56-4.02,6.46-6.82,2.52-18.82,2.83-25.12-1.09-1.76-1.14-3.3-3.05-1.21-4.77,2.07-1.71,5.87-2.88,8.53-3.13-2.36.42-4.68,1.28-6.76,2.47-.85.53-2.13,1.32-2.21,2.38.15,2.03,3.57,3.35,5.26,3.88,6.4,1.86,14.94,1.66,21.26-.46,1.62-.6,3.35-1.3,4.5-2.62.88-1.02.37-1.96-.54-2.73-2.1-1.71-5.63-2.86-8.32-3.14h0Z"/>
      </g>
      <g>
        <path class="cls-7" d="M261.89,68.15c3.06,2.19,10.93,17.93,10.93,24.49s3.06-.44,3.06-.44c0,0,4.59-19.46.22-25.14,8.75,2.19,24.71-5.03,25.58-13.77.44-3.94-1.31-.87-7,.44-5.68,1.31-19.68-1.75-21.86-3.94-2.19-2.19-15.68-22.55-29.3-22.74-15.52-.22,5.47,2.41,14.21,26.89-1.75,3.5-13.99,8.31-27.99,7.87-4.83-.15,10.93,15.74,32.14,6.34Z"/>
        <ellipse class="cls-7" cx="282.44" cy="35.14" rx="11.37" ry="12.03"/>
        <path class="cls-7" d="M284.63,71.21c8.33.24,19.22,3.18,25.92,8.25,10.95,8.56-4.44,16.67-12.06,19.38-20.46,7.57-56.45,8.48-75.37-3.26-5.28-3.41-9.91-9.16-3.63-14.32,6.2-5.14,17.61-8.63,25.58-9.39-7.09,1.26-14.05,3.85-20.28,7.41-2.54,1.59-6.39,3.96-6.62,7.15.44,6.08,10.71,10.05,15.78,11.65,19.19,5.58,44.82,4.97,63.77-1.39,4.85-1.81,10.05-3.91,13.5-7.87,2.65-3.07,1.12-5.88-1.62-8.2-6.29-5.13-16.9-8.57-24.96-9.41h0Z"/>
      </g>
      <g>
        <path class="cls-7" d="M263.06,223.9c2.04,1.46,7.29,11.95,7.29,16.33s2.04-.29,2.04-.29c0,0,3.06-12.97.15-16.76,5.83,1.46,16.47-3.35,17.05-9.18.29-2.62-.87-.58-4.66.29-3.79.87-13.12-1.17-14.58-2.62s-10.45-15.03-19.53-15.16c-10.35-.15,3.64,1.6,9.47,17.93-1.17,2.33-9.33,5.54-18.66,5.25-3.22-.1,7.29,10.49,21.43,4.23Z"/>
        <ellipse class="cls-7" cx="276.76" cy="201.89" rx="7.58" ry="8.02"/>
        <path class="cls-7" d="M278.22,225.94c5.55.16,12.81,2.12,17.28,5.5,7.3,5.71-2.96,11.11-8.04,12.92-13.64,5.05-37.64,5.65-50.25-2.17-3.52-2.28-6.61-6.1-2.42-9.55,4.13-3.43,11.74-5.75,17.05-6.26-4.73.84-9.36,2.57-13.52,4.94-1.69,1.06-4.26,2.64-4.41,4.77.29,4.05,7.14,6.7,10.52,7.77,12.8,3.72,29.88,3.32,42.51-.93,3.23-1.2,6.7-2.61,9-5.24,1.76-2.05.75-3.92-1.08-5.46-4.19-3.42-11.26-5.71-16.64-6.27h0Z"/>
      </g>
      <g>
        <path class="cls-7" d="M264.23,345.3c1.02.73,3.64,5.98,3.64,8.16s1.02-.15,1.02-.15c0,0,1.53-6.49.07-8.38,2.92.73,8.24-1.68,8.53-4.59.15-1.31-.44-.29-2.33.15-1.89.44-6.56-.58-7.29-1.31s-5.23-7.52-9.77-7.58c-5.17-.07,1.82.8,4.74,8.96-.58,1.17-4.66,2.77-9.33,2.62-1.61-.05,3.64,5.25,10.71,2.11Z"/>
        <ellipse class="cls-7" cx="271.08" cy="334.29" rx="3.79" ry="4.01"/>
        <path class="cls-7" d="M271.81,346.32c2.78.08,6.41,1.06,8.64,2.75,3.65,2.85-1.48,5.56-4.02,6.46-6.82,2.52-18.82,2.83-25.12-1.09-1.76-1.14-3.3-3.05-1.21-4.77,2.07-1.71,5.87-2.88,8.53-3.13-2.36.42-4.68,1.28-6.76,2.47-.85.53-2.13,1.32-2.21,2.38.15,2.03,3.57,3.35,5.26,3.88,6.4,1.86,14.94,1.66,21.26-.46,1.62-.6,3.35-1.3,4.5-2.62.88-1.02.37-1.96-.54-2.73-2.1-1.71-5.63-2.86-8.32-3.14h0Z"/>
      </g>
      <g>
        <rect class="cls-6" x="50.46" y="319.67" width="42.83" height="48.36" transform="translate(415.72 271.97) rotate(90)"/>
        <rect class="cls-6" x="55.3" y="330.03" width="33.16" height="27.63"/>
        <polyline class="cls-3" points="47.7 330.03 55.3 330.03 55.3 322.5"/>
        <polyline class="cls-3" points="88.46 322.43 88.46 330.03 95.98 330.03"/>
        <polyline class="cls-3" points="95.98 357.66 88.38 357.66 88.38 365.19"/>
        <polyline class="cls-3" points="55.23 365.26 55.23 357.66 47.7 357.66"/>
      </g>
      <text class="cls-8" transform="translate(44.37 143.39)"><tspan x="0" y="0">Ma</tspan><tspan class="cls-11" x="12.61" y="0">r</tspan><tspan x="16.24" y="0">gin: 11</tspan><tspan class="cls-10" x="44.67" y="0">p</tspan><tspan class="cls-9" x="50.09" y="0">x</tspan></text>
      <text class="cls-8" transform="translate(41.99 281.39)"><tspan x="0" y="0">Ma</tspan><tspan class="cls-11" x="12.61" y="0">r</tspan><tspan x="16.24" y="0">gin: 7.4 </tspan><tspan class="cls-10" x="49.42" y="0">p</tspan><tspan class="cls-9" x="54.84" y="0">x</tspan></text>
      <text class="cls-8" transform="translate(41.99 382.39)"><tspan x="0" y="0">Ma</tspan><tspan class="cls-11" x="12.61" y="0">r</tspan><tspan x="16.24" y="0">gin: 3.7 </tspan><tspan class="cls-10" x="49.42" y="0">p</tspan><tspan class="cls-9" x="54.84" y="0">x</tspan></text>
      <text class="cls-8" transform="translate(242.99 143.39)"><tspan x="0" y="0">Si</tspan><tspan class="cls-11" x="8.07" y="0">z</tspan><tspan x="12.4" y="0">e: 48 </tspan><tspan class="cls-10" x="34.48" y="0">p</tspan><tspan class="cls-9" x="39.9" y="0">x</tspan></text>
      <text class="cls-8" transform="translate(242.99 281.39)"><tspan x="0" y="0">Si</tspan><tspan class="cls-11" x="8.07" y="0">z</tspan><tspan x="12.4" y="0">e: 32 </tspan><tspan class="cls-10" x="34.48" y="0">p</tspan><tspan class="cls-9" x="39.9" y="0">x</tspan></text>
      <text class="cls-8" transform="translate(242.99 382.39)"><tspan x="0" y="0">Si</tspan><tspan class="cls-11" x="8.07" y="0">z</tspan><tspan x="12.4" y="0">e: 16 </tspan><tspan class="cls-10" x="34.48" y="0">p</tspan><tspan class="cls-9" x="39.9" y="0">x</tspan></text>
    </g>
  </g>
</svg>